<svg aria-hidden="true" style="position: absolute; width: 0; height: 0; overflow: hidden;" version="1.1" xmlns="http://www.w3.org/2000/svg" xmlns:xlink="http://www.w3.org/1999/xlink">
<defs>
<symbol id="icon-logo-last" viewBox="0 0 175 32">
<path fill="#4d5ae5" style="fill: var(--color1, #4d5ae5)" d="M8.695 6.485h3.511l2.222 6.446 2.249-6.446h3.483l-3.346 8.859 2.469 6.199 5.513-15.113h4.114l-7.79 19.474h-3.264l-3.429-8.174-3.401 8.174h-3.264l-7.762-19.474h4.059l5.541 15.113 2.414-6.199-3.319-8.859zM45.251 22.586v3.319h-13.525v-19.474h13.275v3.319h-9.49v4.69h8.201v3.072h-8.201v5.074h9.737zM64.713 20.885c0 1.097-0.283 2.021-0.85 2.77-0.567 0.731-1.335 1.289-2.304 1.673-0.899 0.365-1.942 0.576-3.035 0.576-0.032 0-0.065-0-0.097-0.001l0.005 0h-9.408v-19.474h10.423c0.914 0 1.701 0.247 2.359 0.741 0.677 0.475 1.189 1.097 1.536 1.865 0.346 0.687 0.549 1.498 0.549 2.356 0 0.981-0.265 1.9-0.727 2.689l0.014-0.025c-0.475 0.841-1.17 1.463-2.085 1.865 1.115 0.329 1.993 0.923 2.633 1.783 0.658 0.859 0.987 1.92 0.987 3.182zM60.901 20.172c0-0.494-0.101-0.933-0.302-1.317-0.188-0.387-0.468-0.702-0.814-0.927l-0.009-0.005c-0.309-0.223-0.696-0.357-1.114-0.357-0.014 0-0.027 0-0.040 0l0.002-0h-5.815v5.129h5.623c0.457 0 0.869-0.11 1.234-0.329 0.384-0.238 0.686-0.549 0.905-0.933 0.207-0.356 0.329-0.784 0.329-1.24 0-0.008-0-0.015-0-0.023v0.001zM52.809 9.667v4.91h5.047c0.421 0 0.805-0.101 1.152-0.302s0.622-0.485 0.823-0.85c0.219-0.366 0.329-0.805 0.329-1.317 0-0.494-0.101-0.923-0.302-1.289-0.174-0.355-0.437-0.644-0.759-0.845l-0.009-0.005c-0.293-0.189-0.651-0.302-1.035-0.302-0.012 0-0.024 0-0.036 0l0.002-0h-5.211z"></path>
<path fill="#f4f4fd" style="fill: var(--color2, #f4f4fd)" d="M80.68 11.532c-0.21-0.189-0.444-0.361-0.693-0.51l-0.021-0.011c-0.354-0.231-0.76-0.443-1.187-0.614l-0.047-0.017c-0.429-0.186-0.949-0.364-1.486-0.504l-0.078-0.017c-0.517-0.157-1.112-0.247-1.728-0.247-0 0-0 0-0 0h0c-1.024 0-1.801 0.192-2.331 0.576-0.512 0.384-0.768 0.923-0.768 1.618 0 0.53 0.165 0.951 0.494 1.262s0.823 0.576 1.481 0.795c0.658 0.219 1.481 0.457 2.469 0.713 1.28 0.311 2.386 0.695 3.319 1.152 0.951 0.439 1.673 1.024 2.167 1.755 0.512 0.713 0.768 1.664 0.768 2.853 0 1.042-0.192 1.938-0.576 2.688-0.384 0.731-0.914 1.326-1.591 1.783s-1.445 0.795-2.304 1.015c-0.804 0.192-1.727 0.302-2.676 0.302-0.024 0-0.047-0-0.071-0l0.004 0c-1.030-0.001-2.034-0.111-3.001-0.319l0.094 0.017c-1.073-0.224-2.009-0.517-2.903-0.889l0.106 0.039c-0.945-0.405-1.756-0.864-2.51-1.399l0.041 0.028 1.673-3.264c0.165 0.165 0.457 0.384 0.878 0.658 0.421 0.256 0.933 0.521 1.536 0.795 0.603 0.256 1.262 0.475 1.975 0.658s1.435 0.274 2.167 0.274c1.024 0 1.801-0.174 2.331-0.521s0.795-0.841 0.795-1.481c0-0.585-0.21-1.042-0.631-1.371s-1.006-0.613-1.755-0.85c-0.484-0.185-1.371-0.466-2.267-0.725l-0.394-0.098c-1.225-0.347-2.249-0.731-3.072-1.152-0.823-0.439-1.435-0.987-1.838-1.646s-0.603-1.481-0.603-2.469c0-1.335 0.311-2.45 0.933-3.346 0.64-0.914 1.499-1.6 2.578-2.057 1.079-0.475 2.277-0.713 3.593-0.713 0.914 0 1.774 0.101 2.578 0.302 0.823 0.201 1.591 0.466 2.304 0.795s1.353 0.686 1.92 1.070l-1.673 3.072zM101.286 9.749h-6.226v16.155h-3.758v-16.155h-6.226v-3.319h16.212v3.319zM112.783 26.042c-1.554 0-2.88-0.256-3.977-0.768-1.062-0.516-1.945-1.25-2.62-2.149l-0.013-0.018c-0.638-0.884-1.138-1.918-1.438-3.033l-0.015-0.066c-0.296-1.081-0.466-2.322-0.466-3.603 0-0.016 0-0.032 0-0.048v0.002-9.929h3.785v9.929c0 0.805 0.073 1.591 0.219 2.359 0.165 0.75 0.43 1.426 0.795 2.030s0.85 1.079 1.454 1.426c0.603 0.347 1.353 0.521 2.249 0.521 0.914 0 1.673-0.174 2.277-0.521 0.622-0.366 1.106-0.85 1.454-1.454 0.366-0.603 0.631-1.28 0.795-2.030 0.157-0.7 0.247-1.503 0.247-2.328 0-0.001 0-0.003 0-0.004v0-9.929h3.758v9.929c0 1.335-0.165 2.587-0.494 3.758-0.31 1.187-0.83 2.223-1.523 3.119l0.015-0.020c-0.695 0.885-1.577 1.592-2.59 2.066l-0.044 0.018c-1.079 0.494-2.368 0.741-3.867 0.741zM125.922 25.905v-19.474h7.077c2.121 0 3.895 0.439 5.321 1.317 1.394 0.834 2.494 2.032 3.188 3.462l0.021 0.049c0.713 1.463 1.070 3.090 1.070 4.882 0 1.975-0.393 3.694-1.179 5.157-0.775 1.445-1.917 2.605-3.304 3.38l-0.042 0.022c-1.426 0.805-3.118 1.207-5.074 1.207h-7.077zM138.786 16.14c0-1.262-0.229-2.368-0.686-3.319-0.434-0.941-1.112-1.707-1.953-2.237l-0.021-0.013c-0.859-0.549-1.902-0.823-3.127-0.823h-3.291v12.837h3.291c1.243 0 2.295-0.274 3.154-0.823 0.859-0.567 1.509-1.335 1.947-2.304 0.457-0.987 0.686-2.094 0.686-3.319zM146.377 25.905v-19.474h3.785v19.474h-3.785zM163.36 26.042c-1.426 0-2.725-0.274-3.895-0.823-1.17-0.56-2.163-1.307-2.982-2.214l-0.007-0.008c-0.789-0.905-1.437-1.958-1.894-3.108l-0.026-0.073c-0.457-1.189-0.686-2.405-0.686-3.648 0-1.298 0.238-2.533 0.713-3.703 0.494-1.189 1.161-2.24 2.002-3.154 0.835-0.907 1.837-1.646 2.959-2.17l0.058-0.024c1.099-0.52 2.387-0.823 3.746-0.823 0.033 0 0.066 0 0.099 0.001l-0.005-0c1.408 0 2.688 0.283 3.84 0.85 1.176 0.569 2.17 1.335 2.98 2.266l0.009 0.011c0.823 0.951 1.463 2.011 1.92 3.182s0.686 2.377 0.686 3.621c0 1.28-0.238 2.514-0.713 3.703-0.501 1.218-1.176 2.263-2.008 3.161l0.006-0.007c-0.833 0.901-1.836 1.632-2.959 2.143l-0.058 0.024c-1.083 0.503-2.352 0.796-3.688 0.796-0.034 0-0.068-0-0.102-0.001l0.005 0zM157.71 16.168c0 0.841 0.128 1.655 0.384 2.441s0.622 1.49 1.097 2.112c0.494 0.603 1.088 1.088 1.783 1.454 0.681 0.329 1.48 0.522 2.325 0.522 0.031 0 0.062-0 0.093-0.001l-0.005 0c0.914 0 1.728-0.183 2.441-0.549 0.71-0.381 1.304-0.888 1.773-1.496l0.009-0.013c0.475-0.64 0.832-1.344 1.070-2.112 0.241-0.704 0.381-1.514 0.384-2.358v-0.001c0-0.841-0.137-1.646-0.411-2.414-0.259-0.801-0.642-1.494-1.134-2.096l0.009 0.011c-0.47-0.613-1.067-1.104-1.754-1.441l-0.029-0.013c-0.661-0.346-1.445-0.549-2.275-0.549-0.029 0-0.059 0-0.088 0.001l0.004-0c-0.933 0-1.755 0.192-2.469 0.576-0.695 0.366-1.28 0.859-1.755 1.481-0.458 0.596-0.831 1.287-1.083 2.034l-0.015 0.050c-0.226 0.703-0.357 1.512-0.357 2.352 0 0.003 0 0.005 0 0.008v-0z"></path>
</symbol>
<symbol id="icon-linkedin" viewBox="0 0 32 32">
<path fill="#f4f4fd" style="fill: var(--color2, #f4f4fd)" d="M31.992 32v-0.001h0.008v-11.736c0-5.741-1.236-10.164-7.948-10.164-3.227 0-5.392 1.771-6.276 3.449h-0.093v-2.913h-6.364v21.364h6.627v-10.579c0-2.785 0.528-5.479 3.977-5.479 3.399 0 3.449 3.179 3.449 5.657v10.401h6.62z"></path>
<path fill="#f4f4fd" style="fill: var(--color2, #f4f4fd)" d="M0.528 10.636h6.635v21.364h-6.635v-21.364z"></path>
<path fill="#f4f4fd" style="fill: var(--color2, #f4f4fd)" d="M3.843-0c-2.121 0-3.843 1.721-3.843 3.843s1.721 3.879 3.843 3.879c2.121 0 3.843-1.757 3.843-3.879-0.001-2.121-1.723-3.843-3.843-3.843v0z"></path>
</symbol>
<symbol id="icon-facebook" viewBox="0 0 32 32">
<path fill="#f4f4fd" style="fill: var(--color2, #f4f4fd)" d="M21.329 5.313h2.921v-5.088c-0.504-0.069-2.237-0.225-4.256-0.225-4.212 0-7.097 2.649-7.097 7.519v4.481h-4.648v5.688h4.648v14.312h5.699v-14.311h4.46l0.708-5.688h-5.169v-3.919c0.001-1.644 0.444-2.769 2.735-2.769z"></path>
</symbol>
<symbol id="icon-twitter" viewBox="0 0 32 32">
<path fill="#f4f4fd" style="fill: var(--color2, #f4f4fd)" d="M32 6.078c-1.19 0.522-2.458 0.868-3.78 1.036 1.36-0.812 2.398-2.088 2.886-3.626-1.268 0.756-2.668 1.29-4.16 1.588-1.204-1.282-2.92-2.076-4.792-2.076-3.632 0-6.556 2.948-6.556 6.562 0 0.52 0.044 1.020 0.152 1.496-5.454-0.266-10.28-2.88-13.522-6.862-0.566 0.982-0.898 2.106-0.898 3.316 0 2.272 1.17 4.286 2.914 5.452-1.054-0.020-2.088-0.326-2.964-0.808 0 0.020 0 0.046 0 0.072 0 3.188 2.274 5.836 5.256 6.446-0.534 0.146-1.116 0.216-1.72 0.216-0.42 0-0.844-0.024-1.242-0.112 0.85 2.598 3.262 4.508 6.13 4.57-2.232 1.746-5.066 2.798-8.134 2.798-0.538 0-1.054-0.024-1.57-0.090 2.906 1.874 6.35 2.944 10.064 2.944 12.072 0 18.672-10 18.672-18.668 0-0.29-0.010-0.57-0.024-0.848 1.302-0.924 2.396-2.078 3.288-3.406z"></path>
</symbol>
<symbol id="icon-instagram" viewBox="0 0 32 32">
<path fill="#f4f4fd" style="fill: var(--color2, #f4f4fd)" d="M31.969 9.408c-0.075-1.7-0.35-2.869-0.744-3.882-0.406-1.075-1.031-2.038-1.85-2.838-0.8-0.813-1.769-1.444-2.832-1.844-1.019-0.394-2.182-0.669-3.882-0.744-1.713-0.081-2.257-0.1-6.601-0.1s-4.888 0.019-6.595 0.094c-1.7 0.075-2.869 0.35-3.882 0.744-1.075 0.406-2.038 1.031-2.838 1.85-0.813 0.8-1.444 1.769-1.844 2.832-0.394 1.019-0.669 2.182-0.744 3.882-0.081 1.713-0.1 2.257-0.1 6.601s0.019 4.888 0.094 6.595c0.075 1.7 0.35 2.869 0.744 3.882 0.406 1.075 1.038 2.038 1.85 2.838 0.8 0.813 1.769 1.444 2.832 1.844 1.019 0.394 2.182 0.669 3.882 0.744 1.706 0.075 2.25 0.094 6.595 0.094s4.888-0.019 6.595-0.094c1.7-0.075 2.869-0.35 3.882-0.744 2.151-0.831 3.851-2.532 4.682-4.682 0.394-1.019 0.669-2.182 0.744-3.882 0.075-1.707 0.094-2.25 0.094-6.595s-0.006-4.888-0.081-6.595zM29.087 22.473c-0.069 1.563-0.331 2.407-0.55 2.969-0.538 1.394-1.644 2.5-3.038 3.038-0.563 0.219-1.413 0.481-2.969 0.55-1.688 0.075-2.194 0.094-6.464 0.094s-4.782-0.019-6.464-0.094c-1.563-0.069-2.407-0.331-2.969-0.55-0.694-0.256-1.325-0.663-1.838-1.194-0.531-0.519-0.938-1.144-1.194-1.838-0.219-0.563-0.481-1.413-0.55-2.969-0.075-1.688-0.094-2.194-0.094-6.464s0.019-4.782 0.094-6.464c0.069-1.563 0.331-2.407 0.55-2.969 0.256-0.694 0.663-1.325 1.2-1.838 0.519-0.531 1.144-0.938 1.838-1.194 0.563-0.219 1.413-0.481 2.969-0.55 1.688-0.075 2.194-0.094 6.464-0.094 4.276 0 4.782 0.019 6.464 0.094 1.563 0.069 2.407 0.331 2.969 0.55 0.694 0.256 1.325 0.662 1.838 1.194 0.531 0.519 0.938 1.144 1.194 1.838 0.219 0.563 0.481 1.413 0.55 2.969 0.075 1.688 0.094 2.194 0.094 6.464s-0.019 4.77-0.094 6.458z"></path>
<path fill="#f4f4fd" style="fill: var(--color2, #f4f4fd)" d="M16.059 7.783c-4.538 0-8.22 3.682-8.22 8.22s3.682 8.22 8.22 8.22c4.538 0 8.22-3.682 8.22-8.22s-3.682-8.22-8.22-8.22zM16.059 21.335c-2.944 0-5.332-2.388-5.332-5.332s2.388-5.332 5.332-5.332c2.944 0 5.332 2.388 5.332 5.332s-2.388 5.332-5.332 5.332z"></path>
<path fill="#f4f4fd" style="fill: var(--color2, #f4f4fd)" d="M26.524 7.458c0 1.060-0.859 1.919-1.919 1.919s-1.919-0.859-1.919-1.919c0-1.060 0.859-1.919 1.919-1.919s1.919 0.859 1.919 1.919z"></path>
</symbol>
<symbol id="icon-technologies" viewBox="0 0 32 32">
<path fill="#4d5ae5" style="fill: var(--color1, #4d5ae5)" d="M31.974 4.524c-0.064-0.191-0.227-0.332-0.427-0.362l-0.003-0-1.911-0.278-0.855-1.731c-0.179-0.365-0.776-0.365-0.956 0l-0.855 1.731-1.91 0.278c-0.26 0.038-0.457 0.26-0.457 0.528 0 0.15 0.062 0.285 0.161 0.382l0 0 1.383 1.348-0.326 1.903c-0.034 0.2 0.048 0.402 0.212 0.521 0.166 0.12 0.383 0.136 0.562 0.040l1.709-0.899 1.709 0.899c0.072 0.038 0.157 0.060 0.247 0.060 0.295 0 0.534-0.239 0.534-0.534 0-0.031-0.003-0.062-0.008-0.092l0 0.003-0.326-1.903 1.383-1.348c0.099-0.097 0.161-0.233 0.161-0.382 0-0.059-0.009-0.115-0.027-0.168l0.001 0.004zM29.511 5.851c-0.125 0.122-0.183 0.299-0.153 0.472l0.191 1.114-1-0.526c-0.072-0.039-0.158-0.062-0.248-0.062s-0.177 0.023-0.251 0.063l0.003-0.001-1 0.526 0.191-1.114c0.005-0.027 0.008-0.058 0.008-0.090 0-0.15-0.062-0.285-0.161-0.382l-0-0-0.81-0.79 1.119-0.162c0.174-0.025 0.324-0.135 0.401-0.292l0.5-1.013 0.501 1.013c0.078 0.157 0.228 0.267 0.402 0.292l1.119 0.162-0.809 0.79zM26.134 20.522h-1.067v1.067h1.067v-1.067zM26.134 22.655h-1.067v1.067h1.067v-1.067z"></path>
<path fill="#4d5ae5" style="fill: var(--color1, #4d5ae5)" d="M27.2 21.589h-1.067v1.067h1.067v-1.067zM25.067 21.589h-1.067v1.067h1.067v-1.067zM22.4 26.389h-1.067v1.067h1.067v-1.067zM22.4 28.523h-1.067v1.067h1.067v-1.067zM23.467 27.456h-1.067v1.067h1.067v-1.067z"></path>
<path fill="#4d5ae5" style="fill: var(--color1, #4d5ae5)" d="M21.334 27.456h-1.067v1.067h1.067v-1.067zM16 24.256h-1.066v1.067h1.066v-1.067zM16 26.389h-1.066v1.067h1.066v-1.067zM17.067 25.323h-1.067v1.067h1.067v-1.067zM14.934 25.323h-1.067v1.067h1.067v-1.067zM5.867 6.122h-1.066v1.066h1.066v-1.066zM5.867 8.255h-1.066v1.067h1.066v-1.066zM6.933 7.189h-1.066v1.067h1.066v-1.067zM4.8 7.189h-1.067v1.067h1.067v-1.067z"></path>
<path fill="#2e2f42" style="fill: var(--color3, #2e2f42)" d="M24.715 14.159c-0.28-0.377-0.699-0.636-1.179-0.704l-0.009-0.001c-0.076-0.012-0.164-0.018-0.254-0.018-0.411 0-0.789 0.139-1.090 0.374l0.004-0.003-1.252 0.96-1.898 1.417-1.358-0.541c2.421-1.086 4.114-3.508 4.114-6.32 0-3.823-3.122-6.933-6.961-6.933s-6.962 3.11-6.962 6.933c0 1.386 0.414 2.674 1.12 3.758l-2.769-0.024c-0.008 0-0.015 0.005-0.024 0.005-0.056 0.002-0.109 0.013-0.159 0.032l0.004-0.001c-0.013 0.005-0.026 0.008-0.038 0.014-0.006 0.002-0.013 0.003-0.019 0.007l-3.234 1.597-1.893 0.911c-0.024 0.011-0.045 0.023-0.064 0.036l0.001-0.001c-0.482 0.324-0.794 0.866-0.794 1.482 0 0.297 0.073 0.576 0.201 0.822l-0.005-0.010c0.22 0.429 0.595 0.745 1.056 0.89 0.161 0.053 0.345 0.083 0.537 0.083 0.308 0 0.598-0.078 0.851-0.216l-0.009 0.005 1.388-0.738 2.264-1.169 1.357-0.008-5.442 5.415c0 0.001-0.001 0.001-0.002 0.002l-1.339 1.333c-0.303 0.299-0.49 0.714-0.49 1.173 0 0.002 0 0.003 0 0.005v-0c0 0.445 0.173 0.863 0.49 1.178 0.325 0.323 0.752 0.485 1.179 0.485s0.855-0.162 1.18-0.485l1.314-1.308 1.741-1.3 0.901 0.897-3.102 3.088c-0.303 0.299-0.49 0.714-0.49 1.173 0 0.002 0 0.003 0 0.005v-0c0 0.445 0.174 0.863 0.49 1.179 0.325 0.323 0.752 0.485 1.18 0.485s0.855-0.162 1.18-0.485l3.482-3.466c0-0.001 0-0.002 0.001-0.002l1.010-1-0.004-0.003c0.007-0.006 0.015-0.009 0.022-0.015l5.166-5.658 3.471 0.494c0.020 0.003 0.044 0.004 0.068 0.004 0.070 0 0.137-0.014 0.198-0.039l-0.004 0.001c0.017-0.006 0.033-0.015 0.050-0.023 0.019-0.009 0.039-0.015 0.057-0.027l3.213-2.134c0.012-0.008 0.018-0.020 0.029-0.029 0.012-0.010 0.029-0.014 0.040-0.025l1.272-1.192c0.347-0.326 0.564-0.787 0.564-1.299 0-0.4-0.132-0.77-0.355-1.067l0.003 0.005zM2.13 17.77c-0.173 0.093-0.37 0.111-0.558 0.052-0.295-0.093-0.505-0.364-0.505-0.683 0-0.236 0.114-0.445 0.29-0.575l0.002-0.001 1.314-0.632 0.316 0.925 0.133 0.388-0.993 0.527zM5.628 15.943l-1.548 0.8-0.255-0.747-0.183-0.537 2.026-1-0.040 1.483zM20.727 9.322c0 0.918-0.219 1.785-0.599 2.559l-4.181-1.899c-0.043-0.575-0.342-1.073-0.782-1.384l-0.006-0.004 1.464-4.86c2.378 0.755 4.105 2.974 4.105 5.587zM8.938 9.322c0-3.235 2.644-5.867 5.894-5.867 0.253 0 0.5 0.022 0.745 0.053l-1.432 4.753c-0.019 0-0.037-0.005-0.057-0.005-0 0-0.001 0-0.001 0-1.032 0-1.869 0.835-1.871 1.866v0c0.003 1.031 0.84 1.867 1.871 1.867 0 0 0.001 0 0.001 0h-0c0.694 0 1.294-0.383 1.618-0.944l3.863 1.755c-1.075 1.447-2.795 2.39-4.736 2.39-3.25 0-5.895-2.633-5.895-5.867zM14.895 10.122c0 0.441-0.362 0.8-0.806 0.8-0.001 0-0.001 0-0.002 0-0.443 0-0.802-0.358-0.804-0.8v-0c0-0.441 0.361-0.8 0.806-0.8s0.806 0.359 0.806 0.8zM2.465 25.146c-0.11 0.108-0.261 0.175-0.428 0.175s-0.317-0.067-0.427-0.175l0 0c-0.109-0.108-0.176-0.257-0.176-0.422s0.067-0.315 0.176-0.422l0-0 0.962-0.959 0.851 0.848-0.958 0.955zM5.678 28.88c-0.11 0.109-0.261 0.176-0.428 0.176s-0.317-0.067-0.427-0.175l0 0c-0.109-0.108-0.176-0.257-0.176-0.422s0.067-0.315 0.176-0.422l0-0 0.963-0.959 0.852 0.848-0.96 0.955zM9.161 25.411l-0.002 0.001-1.765 1.76-0.851-0.848 1.763-1.756s0.001 0 0.002-0.001c0.040-0.040 0.065-0.088 0.090-0.135 0.007-0.014 0.020-0.026 0.026-0.040 0.017-0.041 0.019-0.085 0.025-0.129 0.004-0.024 0.014-0.047 0.014-0.073 0-0.035-0.012-0.070-0.020-0.105-0.007-0.032-0.007-0.065-0.018-0.096-0.020-0.050-0.055-0.095-0.091-0.137-0.010-0.012-0.014-0.027-0.025-0.038h-0.001l-0.001-0.002-1.607-1.6c-0.017-0.017-0.039-0.024-0.058-0.038-0.025-0.021-0.054-0.040-0.084-0.056l-0.003-0.001c-0.027-0.013-0.058-0.024-0.090-0.032l-0.003-0.001c-0.030-0.009-0.065-0.017-0.101-0.020l-0.002-0c-0.006-0-0.013-0-0.020-0-0.026 0-0.052 0.002-0.077 0.006l0.003-0c-0.039 0.004-0.074 0.011-0.108 0.021l0.004-0.001c-0.036 0.013-0.067 0.028-0.096 0.046l0.002-0.001c-0.020 0.011-0.043 0.015-0.061 0.029l-1.774 1.324-0.901-0.897 2.399-2.386 4.36 4.289-0.927 0.919zM15.979 18.394c-0.015-0.002-0.030 0.004-0.045 0.003-0.008-0-0.017-0.001-0.026-0.001-0.031 0-0.062 0.003-0.092 0.008l0.003-0c-0.030 0.005-0.059 0.011-0.088 0.021-0.037 0.013-0.069 0.029-0.098 0.048l0.002-0.001c-0.030 0.018-0.057 0.038-0.083 0.061-0.013 0.011-0.028 0.017-0.040 0.029l-4.698 5.146-4.328-4.257 2.833-2.818c0.096-0.097 0.156-0.23 0.156-0.377 0-0.295-0.239-0.534-0.534-0.534-0 0-0.001 0-0.001 0h0l-2.219 0.013 0.027-1.607 3.104 0.027c1.264 1.297 3.027 2.101 4.978 2.101 0.001 0 0.002 0 0.003 0h-0c0.438 0 0.864-0.045 1.279-0.122 0.040 0.032 0.079 0.064 0.13 0.085l2.41 0.96 0.331 1.643-3.003-0.427zM20.020 18.573l-0.314-1.558 1.447-1.080 0.947 1.257-2.080 1.381zM23.774 15.742l-0.838 0.785-0.931-1.236 0.831-0.637c0.155-0.12 0.351-0.168 0.543-0.143 0.194 0.027 0.364 0.128 0.48 0.284 0.217 0.292 0.18 0.699-0.085 0.947z"></path>
<path fill="#2e2f42" style="fill: var(--color3, #2e2f42)" d="M13.602 18.544l-2.143-2.134c-0.096-0.096-0.229-0.155-0.376-0.155s-0.28 0.059-0.376 0.155l-2.143 2.134c-0.097 0.097-0.156 0.231-0.156 0.378s0.060 0.281 0.156 0.378l-0-0 2.143 2.133c0.096 0.096 0.229 0.155 0.376 0.155s0.28-0.059 0.376-0.155l2.143-2.133c0.097-0.097 0.157-0.23 0.157-0.378s-0.060-0.282-0.157-0.378l-0-0zM11.083 20.303l-1.386-1.381 1.386-1.381 1.387 1.381-1.387 1.381zM17.164 5.071l-0.258 1.035c0.071 0.018 1.738 0.452 1.738 2.149h1.067c0-2.017-1.666-2.966-2.546-3.185zM19.711 9.322h-1.067v1.067h1.067v-1.067z"></path>
</symbol>
<symbol id="icon-diligence" viewBox="0 0 32 32">
<path fill="#4d5ae5" style="fill: var(--color1, #4d5ae5)" d="M14.925 14.965h1.066v4.797h-1.066v-4.797zM19.19 17.097h1.066v2.665h-1.066v-2.665zM10.661 18.696h1.066v1.066h-1.066v-1.066zM7.463 18.163h1.066v1.599h-1.066v-1.599z"></path>
<path fill="#2e2f42" style="fill: var(--color3, #2e2f42)" d="M1.599 28.291h25.587c0 0 0 0 0 0 0.883 0 1.599-0.716 1.599-1.599v0-2.133c0-0.883-0.716-1.599-1.599-1.599-0 0-0 0-0.001 0h-0.533v-13.293l3.028-2.868c0.207 0.105 0.452 0.166 0.711 0.166 0.888 0 1.608-0.72 1.608-1.608s-0.72-1.608-1.608-1.608c-0.888 0-1.608 0.72-1.608 1.608 0 0.247 0.055 0.48 0.155 0.689l-0.004-0.010-2.282 2.163v-1.23c0-0.883-0.716-1.599-1.599-1.599v0h-21.322c-0 0-0 0-0.001 0-0.883 0-1.599 0.716-1.599 1.599 0 0 0 0 0 0.001v-0 15.991h-0.533c-0.883 0-1.599 0.716-1.599 1.599 0 0 0 0 0 0.001v-0 2.133c0 0.883 0.716 1.599 1.599 1.599v0zM30.384 4.837c0.294 0 0.533 0.239 0.533 0.533s-0.239 0.533-0.533 0.533v0c-0.294 0-0.533-0.239-0.533-0.533s0.239-0.533 0.533-0.533v0zM3.199 6.969c0-0.295 0.239-0.534 0.533-0.534h21.322c0.294 0 0.533 0.239 0.533 0.534v2.238l-1.066 1.013v-2.185c0-0.295-0.238-0.533-0.533-0.533h-19.19c-0.295 0-0.533 0.239-0.533 0.533v13.326c0 0.295 0.239 0.534 0.533 0.534h19.19c0.294 0 0.533-0.239 0.533-0.534v-9.674l1.066-1.010v12.283h-22.388v-15.991zM7.996 13.899c-0.001 0-0.003 0-0.005 0-0.883 0-1.599 0.716-1.599 1.599s0.716 1.599 1.599 1.599c0.432 0 0.824-0.171 1.112-0.45l-0 0 1.853 0.93c0.215 0.108 0.476 0.057 0.636-0.123l3.938-4.431 3.872 2.902c0.208 0.156 0.498 0.139 0.686-0.040l3.365-3.188v8.131h-18.123v-12.26h18.124v2.66l-3.772 3.572-3.905-2.928c-0.088-0.066-0.199-0.106-0.319-0.106-0.158 0-0.3 0.069-0.398 0.178l-0 0.001-3.993 4.493-1.493-0.746c0.011-0.064 0.018-0.129 0.021-0.194-0-0.883-0.716-1.599-1.599-1.599h-0zM8.529 15.498c0 0.294-0.239 0.533-0.533 0.533s-0.533-0.239-0.533-0.533v0c0-0.294 0.239-0.533 0.533-0.533s0.533 0.239 0.533 0.533v0zM11.727 24.026h5.331v0.533c0 0.294-0.238 0.533-0.533 0.533h-4.264c-0.294 0-0.533-0.239-0.533-0.533v0-0.533zM1.066 24.56c0-0.294 0.239-0.533 0.533-0.533h9.062v0.533c0 0 0 0 0 0 0 0.883 0.716 1.599 1.599 1.599h4.265c0.883 0 1.599-0.716 1.599-1.599 0-0 0-0 0-0.001v0-0.533h9.061c0.295 0 0.534 0.238 0.534 0.533v2.133c0 0.294-0.239 0.533-0.534 0.533h-25.586c-0.294 0-0.533-0.239-0.533-0.533v0-2.133z"></path>
</symbol>
<symbol id="icon-punctuality" viewBox="0 0 32 32">
<path fill="#2e2f42" style="fill: var(--color3, #2e2f42)" d="M31.297 15.301c-0.002-8.452-6.855-15.303-15.308-15.301s-15.303 6.855-15.301 15.308c0.002 6.788 4.422 12.543 10.541 14.545l0.108 0.031c0.060 0.019 0.123 0.029 0.187 0.029 0.121 0 0.239-0.032 0.342-0.093 0.135-0.080 0.236-0.207 0.284-0.357l3.865-12.25c1.054-0.004 1.906-0.859 1.906-1.913 0-1.057-0.856-1.913-1.913-1.913-0.303 0-0.59 0.070-0.844 0.196l0.011-0.005-5.106-5.107c-0.115-0.115-0.275-0.187-0.451-0.187-0.352 0-0.638 0.285-0.638 0.638 0 0.176 0.071 0.336 0.187 0.451v0l5.104 5.109c-0.121 0.241-0.191 0.525-0.191 0.826 0 0.601 0.283 1.137 0.723 1.48l0.004 0.003-3.683 11.673c-7.278-2.681-11.005-10.754-8.323-18.032 2.681-7.277 10.755-11.005 18.032-8.323s11.004 10.755 8.323 18.032c-1.345 3.581-4.004 6.406-7.374 7.938l-0.088 0.036-0.398-1.875c-0.063-0.291-0.318-0.505-0.624-0.505-0.163 0-0.312 0.061-0.425 0.162l0.001-0.001-3.837 3.425c-0.132 0.117-0.214 0.287-0.214 0.477 0 0.283 0.185 0.524 0.441 0.607l0.005 0.001 4.899 1.564c0.058 0.020 0.126 0.031 0.196 0.031 0.352 0 0.637-0.285 0.637-0.637 0-0.047-0.005-0.093-0.015-0.137l0.001 0.004-0.391-1.839c5.528-2.374 9.329-7.772 9.329-14.057 0-0.011 0-0.023-0-0.034v0.002zM15.992 14.664c0.352 0 0.638 0.286 0.638 0.638s-0.286 0.638-0.638 0.638v0c-0.352 0-0.638-0.286-0.638-0.638s0.286-0.638 0.638-0.638v0zM18.093 29.527l2.184-1.948 0.603 2.84-2.787-0.892z"></path>
<path fill="#4d5ae5" style="fill: var(--color1, #4d5ae5)" d="M15.354 3.185v1.275c0 0.352 0.285 0.638 0.637 0.638s0.638-0.285 0.638-0.638v-1.275c-0.014-0.341-0.294-0.613-0.637-0.613s-0.624 0.271-0.637 0.611l-0 0.001zM3.876 14.664c-0.352 0-0.637 0.285-0.637 0.637s0.285 0.637 0.638 0.637h1.275c0.352 0 0.638-0.285 0.638-0.637s-0.285-0.637-0.638-0.637h-1.275zM28.108 15.939c0.352 0 0.637-0.285 0.637-0.637s-0.285-0.637-0.637-0.637h-1.275c-0.341 0.014-0.613 0.294-0.613 0.637s0.271 0.624 0.611 0.637l0.001 0h1.275z"></path>
</symbol>
<symbol id="icon-strategy" viewBox="0 0 32 32">
<path fill="#2e2f42" style="fill: var(--color3, #2e2f42)" d="M30.773 22.098l-8.443-8.505 0.937-4.615c0.242 0.094 0.499 0.143 0.759 0.145h0.006c0.008 0 0.017 0 0.026 0 1.192 0 2.159-0.967 2.159-2.159s-0.967-2.159-2.159-2.159c-1.192 0-2.159 0.967-2.159 2.159 0 0.26 0.046 0.508 0.13 0.739l-0.005-0.015-4.96 0.605-8.091-8.133c-0.096-0.098-0.229-0.159-0.376-0.16h-0c-0.14 0.001-0.274 0.057-0.373 0.155l-1.513 1.504c-0.097 0.097-0.156 0.23-0.156 0.377s0.060 0.281 0.156 0.377v0l0.814 0.825c-1.143 2.062-1.816 4.522-1.816 7.139 0 4.106 1.656 7.825 4.336 10.526l-0.001-0.001c0.042 0.041 0.091 0.073 0.146 0.098-0.032 0.164-0.051 0.353-0.052 0.546v6.188h-6.4c-1.472 0.001-2.666 1.194-2.667 2.666v1.067c0 0.295 0.239 0.533 0.534 0.533h24.534c0.294 0 0.534-0.239 0.534-0.534v-1.067c-0.002-1.472-1.195-2.665-2.667-2.666h-6.4v-2.742c1.003 0.21 2.024 0.317 3.049 0.32 2.58-0.003 5.005-0.663 7.117-1.822l-0.077 0.039 0.819 0.823c0.099 0.101 0.235 0.159 0.377 0.16 0.14-0.001 0.274-0.056 0.373-0.155l1.512-1.505c0.096-0.097 0.156-0.23 0.156-0.377s-0.060-0.28-0.156-0.377v0zM23.28 6.233c0.193-0.192 0.458-0.31 0.752-0.31 0.589 0 1.067 0.478 1.067 1.066s-0.477 1.066-1.067 1.066c-0 0-0 0-0 0h-0.003c-0.587-0.003-1.061-0.479-1.061-1.066 0-0.296 0.12-0.563 0.315-0.756l0-0h-0.002zM22.024 9.738l-0.599 2.945-1.175-1.182 1.774-1.764zM21.419 8.836l-1.92 1.909-1.485-1.493 3.405-0.415zM24.004 28.8c0.884 0 1.6 0.716 1.6 1.6v0 0.534h-23.466v-0.534c0-0.884 0.716-1.6 1.6-1.6h20.267zM16.538 26.666v1.067h-5.334v-1.067h5.334zM11.204 25.6v-4.053c0-1.294 1.197-2.346 2.666-2.346s2.667 1.053 2.667 2.346v4.053h-5.334zM17.604 23.904v-2.357c0-1.882-1.675-3.413-3.733-3.413-0.018-0-0.038-0-0.059-0-1.353 0-2.54 0.707-3.213 1.771l-0.009 0.016c-2.36-2.482-3.811-5.846-3.811-9.549 0-2.314 0.567-4.496 1.569-6.414l-0.036 0.077 18.602 18.709c-1.823 0.947-3.98 1.502-6.266 1.502-1.079 0-2.128-0.124-3.136-0.357l0.093 0.018zM28.893 23.221l-21.057-21.18 0.755-0.752 7.935 7.98c0.003 0 0.006 0.007 0.009 0.009l13.114 13.191-0.757 0.752z"></path>
<path fill="#4d5ae5" style="fill: var(--color1, #4d5ae5)" d="M13.876 20.267h-0.005c-0.001 0-0.002 0-0.002 0-0.884 0-1.6 0.716-1.6 1.6s0.715 1.599 1.597 1.6h0.005c0.001 0 0.002 0 0.002 0 0.884 0 1.6-0.716 1.6-1.6s-0.715-1.599-1.597-1.6h-0zM14.249 22.245c-0.096 0.096-0.229 0.155-0.376 0.155-0.295 0-0.534-0.239-0.534-0.534 0-0.001 0-0.001 0-0.002v0c0.002-0.292 0.238-0.529 0.53-0.53h0c0.293 0.002 0.531 0.24 0.531 0.534 0 0.148-0.060 0.281-0.157 0.378l-0 0h0.005z"></path>
</symbol>
<symbol id="icon-logo" viewBox="0 0 153 32">
<path fill="#4d5ae5" style="fill: var(--color1, #4d5ae5)" d="M7.608 7.675h3.072l1.944 5.64 1.968-5.64h3.048l-2.928 7.752 2.16 5.424 4.824-13.224h3.6l-6.816 17.040h-2.856l-3-7.152-2.976 7.152h-2.856l-6.792-17.040h3.552l4.848 13.224 2.112-5.424-2.904-7.752zM39.595 21.763v2.904h-11.835v-17.040h11.616v2.904h-8.304v4.104h7.176v2.688h-7.176v4.44h8.52zM56.624 20.275c0 0.96-0.248 1.768-0.744 2.424-0.496 0.64-1.168 1.128-2.016 1.464-0.787 0.319-1.699 0.504-2.655 0.504-0.028 0-0.057-0-0.085-0l0.004 0h-8.232v-17.040h9.12c0.8 0 1.488 0.216 2.064 0.648 0.592 0.416 1.040 0.96 1.344 1.632 0.303 0.601 0.481 1.311 0.481 2.061 0 0.858-0.232 1.662-0.636 2.353l0.012-0.022c-0.416 0.736-1.024 1.28-1.824 1.632 0.976 0.288 1.744 0.808 2.304 1.56 0.576 0.752 0.864 1.68 0.864 2.784zM53.288 19.651c0-0.432-0.088-0.816-0.264-1.152-0.164-0.338-0.41-0.615-0.712-0.811l-0.008-0.005c-0.271-0.195-0.609-0.312-0.974-0.312-0.012 0-0.024 0-0.035 0l0.002-0h-5.088v4.488h4.92c0.4 0 0.76-0.096 1.080-0.288 0.336-0.208 0.6-0.48 0.792-0.816 0.181-0.312 0.288-0.686 0.288-1.085 0-0.007-0-0.013-0-0.020v0.001zM46.208 10.459v4.296h4.416c0.368 0 0.704-0.088 1.008-0.264s0.544-0.424 0.72-0.744c0.192-0.32 0.288-0.704 0.288-1.152 0-0.432-0.088-0.808-0.264-1.128-0.152-0.311-0.382-0.564-0.664-0.74l-0.008-0.004c-0.256-0.166-0.57-0.264-0.906-0.264-0.011 0-0.021 0-0.032 0l0.002-0h-4.56z"></path>
<path fill="#2e2f42" style="fill: var(--color3, #2e2f42)" d="M70.595 12.091c-0.184-0.165-0.388-0.316-0.606-0.446l-0.018-0.010c-0.309-0.202-0.665-0.388-1.039-0.537l-0.041-0.015c-0.375-0.163-0.831-0.319-1.3-0.441l-0.068-0.015c-0.453-0.137-0.973-0.216-1.512-0.216-0 0-0 0-0 0h0c-0.896 0-1.576 0.168-2.040 0.504-0.448 0.336-0.672 0.808-0.672 1.416 0 0.464 0.144 0.832 0.432 1.104s0.72 0.504 1.296 0.696c0.576 0.192 1.296 0.4 2.16 0.624 1.12 0.272 2.088 0.608 2.904 1.008 0.832 0.384 1.464 0.896 1.896 1.536 0.448 0.624 0.672 1.456 0.672 2.496 0 0.912-0.168 1.696-0.504 2.352-0.336 0.64-0.8 1.16-1.392 1.56s-1.264 0.696-2.016 0.888c-0.703 0.168-1.511 0.264-2.341 0.264-0.021 0-0.041-0-0.062-0h0.003c-0.901-0.001-1.78-0.097-2.626-0.279l0.082 0.015c-0.939-0.196-1.758-0.453-2.541-0.778l0.093 0.034c-0.827-0.355-1.537-0.756-2.196-1.224l0.036 0.024 1.464-2.856c0.144 0.144 0.4 0.336 0.768 0.576 0.368 0.224 0.816 0.456 1.344 0.696 0.528 0.224 1.104 0.416 1.728 0.576s1.256 0.24 1.896 0.24c0.896 0 1.576-0.152 2.040-0.456s0.696-0.736 0.696-1.296c0-0.512-0.184-0.912-0.552-1.2s-0.88-0.536-1.536-0.744c-0.424-0.162-1.2-0.408-1.983-0.635l-0.345-0.085c-1.072-0.304-1.968-0.64-2.688-1.008-0.72-0.384-1.256-0.864-1.608-1.44s-0.528-1.296-0.528-2.16c0-1.168 0.272-2.144 0.816-2.928 0.56-0.8 1.312-1.4 2.256-1.8 0.944-0.416 1.992-0.624 3.144-0.624 0.8 0 1.552 0.088 2.256 0.264 0.72 0.176 1.392 0.408 2.016 0.696s1.184 0.6 1.68 0.936l-1.464 2.688zM88.625 10.531h-5.448v14.136h-3.288v-14.136h-5.448v-2.904h14.185v2.904zM98.685 24.787c-1.36 0-2.52-0.224-3.48-0.672-0.929-0.452-1.702-1.094-2.292-1.88l-0.012-0.016c-0.558-0.774-0.995-1.678-1.259-2.654l-0.013-0.058c-0.259-0.946-0.408-2.032-0.408-3.152 0-0.014 0-0.028 0-0.042v0.002-8.688h3.312v8.688c0 0.704 0.064 1.392 0.192 2.064 0.144 0.656 0.376 1.248 0.696 1.776s0.744 0.944 1.272 1.248c0.528 0.304 1.184 0.456 1.968 0.456 0.8 0 1.464-0.152 1.992-0.456 0.544-0.32 0.968-0.744 1.272-1.272 0.32-0.528 0.552-1.12 0.696-1.776 0.137-0.612 0.216-1.315 0.216-2.037 0-0.001 0-0.002 0-0.004v0-8.688h3.288v8.688c0 1.168-0.144 2.264-0.432 3.288-0.272 1.039-0.727 1.945-1.333 2.729l0.013-0.017c-0.608 0.775-1.38 1.393-2.266 1.808l-0.038 0.016c-0.944 0.432-2.072 0.648-3.384 0.648zM110.181 24.667v-17.040h6.192c1.856 0 3.408 0.384 4.656 1.152 1.219 0.73 2.182 1.778 2.789 3.030l0.019 0.042c0.624 1.28 0.936 2.704 0.936 4.272 0 1.728-0.344 3.232-1.032 4.512-0.678 1.264-1.678 2.279-2.891 2.957l-0.037 0.019c-1.248 0.704-2.728 1.056-4.44 1.056h-6.192zM121.437 16.123c0-1.104-0.2-2.072-0.6-2.904-0.38-0.824-0.973-1.494-1.709-1.957l-0.019-0.011c-0.752-0.48-1.664-0.72-2.736-0.72h-2.88v11.232h2.88c1.088 0 2.008-0.24 2.76-0.72 0.752-0.496 1.32-1.168 1.704-2.016 0.4-0.864 0.6-1.832 0.6-2.904zM128.080 24.667v-17.040h3.312v17.040h-3.312zM142.94 24.787c-1.248 0-2.384-0.24-3.408-0.72-1.024-0.49-1.893-1.144-2.61-1.937l-0.006-0.007c-0.69-0.792-1.257-1.714-1.657-2.72l-0.023-0.064c-0.4-1.040-0.6-2.104-0.6-3.192 0-1.136 0.208-2.216 0.624-3.24 0.432-1.040 1.016-1.96 1.752-2.76 0.731-0.794 1.607-1.44 2.589-1.899l0.051-0.021c0.961-0.455 2.089-0.72 3.278-0.72 0.029 0 0.058 0 0.086 0l-0.004-0c1.232 0 2.352 0.248 3.36 0.744 1.029 0.498 1.899 1.168 2.608 1.982l0.008 0.010c0.72 0.832 1.28 1.76 1.68 2.784s0.6 2.080 0.6 3.168c0 1.12-0.208 2.2-0.624 3.24-0.438 1.066-1.029 1.98-1.757 2.766l0.005-0.006c-0.729 0.788-1.606 1.428-2.589 1.875l-0.051 0.021c-0.948 0.44-2.058 0.696-3.227 0.696-0.030 0-0.060-0-0.089-0l0.005 0zM137.996 16.147c0 0.736 0.112 1.448 0.336 2.136s0.544 1.304 0.96 1.848c0.432 0.528 0.952 0.952 1.56 1.272 0.596 0.288 1.295 0.457 2.034 0.457 0.027 0 0.055-0 0.082-0.001l-0.004 0c0.8 0 1.512-0.16 2.136-0.48 0.621-0.334 1.141-0.777 1.552-1.309l0.008-0.011c0.416-0.56 0.728-1.176 0.936-1.848 0.211-0.616 0.334-1.325 0.336-2.063v-0.001c0-0.736-0.12-1.44-0.36-2.112-0.226-0.701-0.562-1.307-0.992-1.834l0.008 0.010c-0.411-0.536-0.934-0.966-1.535-1.261l-0.025-0.011c-0.579-0.303-1.264-0.481-1.991-0.481-0.026 0-0.051 0-0.077 0.001l0.004-0c-0.816 0-1.536 0.168-2.16 0.504-0.608 0.32-1.12 0.752-1.536 1.296-0.401 0.521-0.727 1.126-0.947 1.78l-0.013 0.044c-0.198 0.615-0.312 1.323-0.312 2.058 0 0.002 0 0.004 0 0.007v-0z"></path>
</symbol>
</defs>
</svg>
